<?xml version="1.0" encoding="utf-8"?>
<!-- Generator: Adobe Illustrator 24.3.0, SVG Export Plug-In . SVG Version: 6.00 Build 0)  -->
<svg version="1.1" id="Layer_1" xmlns="http://www.w3.org/2000/svg" xmlns:xlink="http://www.w3.org/1999/xlink" x="0px" y="0px"
	 viewBox="0 0 141 325.5" style="enable-background:new 0 0 141 325.5;" xml:space="preserve">
<style type="text/css">
	.st0{fill:#56AAEC;}
	.st1{fill:#FFC8AF;}
	.st2{fill:#BB79CE;}
	.st3{fill:#06DAAA;}
	.st4{fill:#E6E7E8;}
	.st5{fill:#F37928;}
	.st6{fill:#EDB29A;}
	.st7{fill:#A76EBA;}
	.st8{fill:#E8505B;}
	.st9{fill:#702358;}
	.st10{fill:#E046B0;}
	.st11{opacity:0.5;}
	.st12{opacity:0.17;}
	.st13{fill:#FAFAFA;}
</style>
<g>
	<path class="st0" d="M113.7,239.5l-23.5,64.7c-6,0.2-10.9-2-14.8-6.7l13.3-61.5l-10.8-58.4h-5.3l-3.2,133
		c-4.5,1.9-12.6,1.7-17.7,0.1l-8-136.9l-0.2-3.1h62.2l0.4,2.4l8.8,53.3C115.6,230.7,115.2,235.3,113.7,239.5z"/>
	<path class="st1" d="M113.6,128.3c0,0,3.1,9,0.7,12.6c-0.5,0.7-1.1,1.5-1.8,2.1c-2.3,2.3-5.1,3.9-5.4,4.1
		c-1.7-8.7-2.9-16.8-3.5-24.9c0,0,3.9,2.5,6,6H113.6z"/>
	<path class="st2" d="M97.8,322.2c-0.2,0.5-0.4,0.9-0.7,1.2c-1.1,1.3-3.1,1.4-6.6,0.5c-2.2-0.6-6.3-3.5-9.9-6.9
		c-4.1-3.8-7.7-7.8-7.7-7.8l0.6-2.9l1.9-8.9c3.9,4.7,8.8,7,14.8,6.7l3.4,11.1C93.6,315.3,98.7,319.8,97.8,322.2z"/>
	<path class="st1" d="M91.5,40.6c-1.3,1.5-7.7,0.9-7.7,0.9v2.8c-0.4,5.3-4.9,9.5-10.3,9.5c-5.4,0-9.8-4.1-10.3-9.3v-7.9
		c5.9,0.2,5.6-4.6,5.6-4.6s-3.3-1.9-3.5-5.2c-0.2-3.3,3.6-5.8,5.1-5.2c1.5,0.6,1,9.1,3.8,8.2c0.8-0.2,1-3.6,1-5.5
		c0-0.8,0.3-1.6,0.9-2.1l0.9-0.9c0.4-0.4,0.6-0.8,0.8-1.3l1.7-5.6c5.6-0.3,10.3-2.4,13.2-4.5C97.7,22.4,92.8,39.1,91.5,40.6z"/>
	<path class="st2" d="M80.8,325.5H52.5l-0.2-3.1l-0.7-11.8c5.2,1.6,13.2,1.8,17.7-0.1l9.3,8.6l3.4,3.1c0,0,0.1,0.1,0.1,0.1
		C83.3,323.6,82.5,325.5,80.8,325.5z"/>
	<path class="st3" d="M140.6,100.4c-2.5-14.7-29-45.3-34.4-49c-4.7-3.3-19-6.3-22.3-7c-0.4,5.3-4.9,9.5-10.3,9.5
		c-5.4,0-9.8-4.1-10.3-9.3c-5.3,1.5-28.3,7.9-32.3,10.1c-4.5,2.5-27,25.3-30.7,54.9c-2.3,18.5,13.2,32.5,34.1,35.9v9.2l4.8,4.8v11.3
		h66.6v-12.9l3-3c-0.6-2.6-1.1-5.1-1.5-7.6c-1.7-8.7-2.9-16.8-3.5-24.9c-0.8-10.4-0.5-20.7,1.2-31.7c0,0,14.3,5.2,15.1,14.7
		c0.4,3.7-0.8,6.9-2.4,9.5c-2.4,3.9-5.8,6.3-5.8,6.3v4.3l-2.2,2.9h4c0,0,3.1,9,0.7,12.6c-0.5,0.7-1.1,1.5-1.8,2.1c3.5,0,5-2.9,5-2.9
		s5.2-1.2,8.5-2.8C129.4,135.7,143.7,118.7,140.6,100.4z M34.3,121.1c-4.2-1.2-7.8-3.3-9.3-6.9c-0.7-1.7-1.1-3.3-1.2-4.8
		c0-0.3-0.1-0.6-0.1-0.9c0,0,0,0,0,0c-0.1-1.4,0-2.6,0.3-3.8c1.7-8.7,10.3-14,10.3-14V121.1z M91.8,117.3c-0.4,2.6-2.3,7.6-2.3,7.6
		v3.3c0,3.7-3,6.6-6.6,6.6h-1.6c-0.2,1.5-0.2,1.5,0,0h-8h-6V124h3.1l1.9-6.3c0.4-1.4,1.4-2.5,2.8-3l10.2-4c0,0-0.1,0.1-0.1,0.1
		c-1.7,1.7-3.1,3.5-4.5,5.4c2.9-0.9,8.5-2.3,11.1-0.8C92.3,115.8,92,116.5,91.8,117.3z"/>
	<path class="st4" d="M67.2,124v-1.2H63c0,0-1.5-0.8-2.4-1.1c-0.9-0.4-19,0-19,0s17.4-1.3,20.6-1.1c3.2,0.1,6.4,1.7,7,2.2
		c0.5,0.5,0.8,1.2,0.8,1.2H67.2"/>
	<path class="st5" d="M92.8,9.9c-2.9,2.1-7.6,4.2-13.2,4.5L77.9,20c-0.1,0.5-0.4,1-0.8,1.3l-0.9,0.9c-0.6,0.6-0.9,1.3-0.9,2.1
		c0,1.9-0.2,5.3-1,5.5c-2.9,0.8-2.3-7.6-3.8-8.2c-1.5-0.6-5.3,1.9-5.1,5.2c0.2,3.3,3.5,5.2,3.5,5.2s0.3,4.9-5.6,4.6
		c-0.7,0-2.4-3.7-2.6-4.2c-3.5-7-4.4-15-1.4-22.3c0.6-1.3,1.3-2.9,2.2-4c0.6-0.8,1.3-1.1,2.2-1.4c0.9-0.3,2.2-0.1,3-0.5
		c0.7-0.3,0.8-1.3,1.5-1.8c0.9-0.7,2.3-1,3.4-1.2C76.3,0,81.9-0.3,86.9,0.3c2.5,0.3,6.3,1,7.7,3.4C96.1,6.2,94.9,8.4,92.8,9.9z"/>
	<path class="st4" d="M73.2,134.9c0,0-2,5-12.7,9.6c-10.7,4.6-26.2,5.4-26.2,5.4v-4.6c15.8,0,21.4-2.9,23.6-4.3
		c2.4-1.5,3.7-4.1,4.5-4.2c0.8-0.1,4.8-0.4,4.8-0.4v-1.6H73.2z"/>
	<path class="st4" d="M60,47.2c0,1.4,3.3,5.8,6.5,7.5c0,0-3.5-0.8-5.3-2.8C59.5,49.9,60,47.2,60,47.2z"/>
	<path class="st4" d="M23.7,108.5c0,0.3,0,0.6,0.1,0.9l-0.1-0.1C23.7,109,23.7,108.7,23.7,108.5z"/>
	<path class="st4" d="M37.9,82l-2.6,39.1h-1V90.6c0,0-8.6,5.3-10.3,14C26.1,90.5,37.9,82,37.9,82z"/>
	<path class="st4" d="M117.6,114.7c1.6-2.5,2.8-5.8,2.4-9.5c-0.9-9.4-15.1-14.7-15.1-14.7l2.7-11.1c0,0,16.1,11.9,15.7,23
		C123.1,108.3,120.2,112.3,117.6,114.7z"/>
	<polygon class="st4" points="106,173 43.6,173.7 43.5,170.6 105.6,170.6 	"/>
	<path class="st6" d="M68.9,32c2,0.6,3.6,0,3.6,0s-0.4,2.3-1.8,2.2C69.3,34.1,68.9,32,68.9,32z"/>
	<path class="st6" d="M91.5,40.6c-1.3,1.5-7.7,0.9-7.7,0.9v2.3c-4.1-1.1-5.9-3.5-5.9-3.5S88.3,41,91.5,40.6z"/>
	<path class="st7" d="M80.8,325.5H52.5l-0.2-3.1h29.9C83.3,323.6,82.5,325.5,80.8,325.5z"/>
	<path class="st7" d="M97,323.4c-1.1,1.3-3.1,1.4-6.6,0.5c-2.2-0.6-6.3-3.5-9.9-6.9c-4.1-3.8-7.7-7.8-7.7-7.8l0.6-2.9
		c2.5,3,8.6,10,12.2,12.7C89.4,321.9,93.6,324.6,97,323.4z"/>
	<path class="st4" d="M105.6,157.7c0,0-11.4,1.3-22.2,2.2c-10.8,0.9-17.8,0.6-17.8,0.6s15.1,1,27.1,0c12-0.9,13-1.2,13-1.2V157.7z"
		/>
	<g>
		<g>
			<path class="st8" d="M125.8,166.6h-7.2v-39c0-9.2-7.5-16.7-16.7-16.7s-16.7,7.5-16.7,16.7v39h-7.2v-39
				c0-13.1,10.7-23.8,23.8-23.8c13.1,0,23.8,10.7,23.8,23.8V166.6z"/>
		</g>
	</g>
	<g>
		<g>
			<path class="st9" d="M125.8,166.6h-7.2v-39c0-9.2-7.5-16.7-16.7-16.7s-16.7,7.5-16.7,16.7v39h-7.2v-39
				c0-13.1,10.7-23.8,23.8-23.8c13.1,0,23.8,10.7,23.8,23.8V166.6z"/>
		</g>
	</g>
	<g>
		<g>
			<path class="st10" d="M128.3,190.5H75.7c-3.2,0-5.8-2.6-5.8-5.8v-29.6c0-3.2,2.6-5.8,5.8-5.8h52.6c3.2,0,5.8,2.6,5.8,5.8v29.6
				C134.1,187.9,131.5,190.5,128.3,190.5z"/>
		</g>
	</g>
	<g class="st11">
		<path d="M107.3,164.5c0-3-2.4-5.4-5.4-5.4c-3,0-5.4,2.4-5.4,5.4c0,2.5,1.7,4.5,3.9,5.1v8h2.9v-8C105.7,169,107.3,167,107.3,164.5z
			"/>
	</g>
	<g class="st12">
		<g>
			<g>
				<path class="st13" d="M73.3,186.6c-0.1,0-0.3-6.9-0.3-15.3c0-8.5,0.1-15.3,0.3-15.3c0.1,0,0.3,6.9,0.3,15.3
					C73.6,179.7,73.4,186.6,73.3,186.6z"/>
			</g>
		</g>
	</g>
	<g class="st12">
		<g>
			<g>
				<path class="st13" d="M97.8,171.4c0,0-0.3-0.1-0.6-0.4c-0.4-0.3-0.9-0.7-1.4-1.4c-1-1.3-1.9-3.7-1.3-6.3c0.6-2.6,2.5-4.3,4-5
					c0.8-0.4,1.4-0.6,1.9-0.6c0.5-0.1,0.7-0.1,0.7,0c0,0.1-1,0.2-2.4,1c-1.4,0.8-3.1,2.4-3.7,4.8c-0.6,2.4,0.2,4.6,1.1,5.9
					C97,170.7,97.8,171.3,97.8,171.4z"/>
			</g>
		</g>
	</g>
	<path class="st1" d="M75,114.8l10.2-4c0,0-0.1,0.1-0.1,0.1c-1.7,1.7-3.1,3.5-4.5,5.4c2.9-0.9,8.5-2.3,11.1-0.8
		c0.6,0.3,1,0.8,1.2,1.5c0.1,2-2.1,4.9-2.1,4.9l-1.4,6.4c0,3.7-3,6.6-6.6,6.6h-1.6h-8h-6V124h3.1l1.9-6.3
		C72.7,116.4,73.7,115.3,75,114.8z"/>
</g>
</svg>
