<?xml version="1.0" encoding="utf-8"?>
<!-- Generator: Adobe Illustrator 22.1.0, SVG Export Plug-In . SVG Version: 6.00 Build 0)  -->
<svg version="1.1" id="Warstwa_1" xmlns="http://www.w3.org/2000/svg" xmlns:xlink="http://www.w3.org/1999/xlink" x="0px" y="0px"
	 viewBox="0 0 389.8 305.8" style="enable-background:new 0 0 389.8 305.8;" xml:space="preserve">
<style type="text/css">
	.st0{fill:#FFFFFF;}
</style>
<path class="st0" d="M105.2,296.5c11.7,11.7,30.6,11.7,42.3,0l144.9-144.9c4.2-4.2,7.4-9.1,9.4-14.4c14.6,4.1,28.7,6.2,41.2,6.2
	c30.9-0.2,41.1-13.7,44.5-21.8c3.4-8,5.8-24.8-15.9-46.9l-0.7-0.7c-13.4-13.4-33-25.8-55.1-35c-4.1-1.7-8.2-3.2-12.2-4.6v-0.2
	C303.3,16.3,289,2,271.2,1.7l-86.8-1.2c-11.5-0.2-22.6,4.3-30.6,12.5L8.8,157.9c-11.7,11.7-11.7,30.6,0,42.3L105.2,296.5z
	 M216.8,52.4c9.7-9.7,25.4-9.7,35,0c5.8,5.8,8.1,13.7,7,21.1c9.5,6.7,20.9,13,33,18c4.3,1.8,8.5,3.4,12.5,4.7l-0.5-34.9
	c0.7,0.3,1.4,0.6,2.1,0.9c19,7.9,36,18.6,47,29.6l0.5,0.5c10.4,10.6,11.5,17.4,10.6,19.5c-2.7,6.5-31.9,12.2-76.2-6.2
	c-13-5.4-25.1-12.2-35-19.4c-0.3,0.4-0.7,0.8-1,1.2c-9.7,9.7-25.4,9.7-35,0C207.2,77.7,207.2,62.1,216.8,52.4L216.8,52.4z
	 M216.8,52.4"/>
</svg>
