<svg width="52" height="76" viewBox="0 0 52 76" fill="none" xmlns="http://www.w3.org/2000/svg">
<path d="M52 21.5333V14.44L35.5122 4.30667V0H16.4878V4.30667L0 14.44V21.5333H2.53659V17.7333H16.4878V20.7733L0 30.9067V38H2.53659V34.2H16.4878V38.5067L0 48.64V55.7333H2.53659V51.9333H16.2341L11.161 76H16.1073L25.7463 54.4667L35.3854 76H40.3317L35.2585 51.9333H35.5122H49.4634V55.7333H52V48.64L35.5122 38.5067V34.2H49.4634V38H52V30.9067L35.5122 20.7733V17.7333H49.4634V21.5333H52ZM32.9756 2.53333V15.2H19.0244V2.53333H32.9756ZM3.67805 15.2L16.4878 7.34667V15.2H3.67805ZM3.67805 31.6667L16.4878 23.8133V31.6667H3.67805ZM16.4878 49.4H3.67805L16.4878 41.5467V49.4ZM14.4585 73.4667H14.3317L18.8976 51.9333H24.0976L14.4585 73.4667ZM37.161 73.4667H37.0341L27.3951 51.9333H32.722L37.161 73.4667ZM48.3219 49.4H35.5122V41.5467L48.3219 49.4ZM32.9756 49.4H19.0244V34.2H32.9756V49.4ZM48.3219 31.6667H35.5122V23.8133L48.3219 31.6667ZM32.9756 31.6667H19.0244V17.7333H32.9756V31.6667ZM35.5122 7.34667L48.3219 15.2H35.5122V7.34667Z" fill="#DA202C"/>
</svg>
