<svg width="80" height="80" viewBox="0 0 80 80" fill="none" xmlns="http://www.w3.org/2000/svg">
    <path d="M54,11H27v9H54Zm-2,7H29V13H52Z" fill="#D5121E"/>
    <rect x="29" y="23" width="22" height="2" fill="#D5121E"/>
    <rect x="29" y="28" width="22" height="2" fill="#D5121E"/>
    <path d="M60,48.33a4.22,4.22,0,0,0-2.12.56,4.38,4.38,0,0,0-4.38-3.29,3.74,3.74,0,0,0-1.86.47,4,4,0,0,0-3.88-2.74,4.23,4.23,0,0,0-2.06.52V41H62V6H19V41H37.51V54.42l-2.72-2.22c-2.06-1.88-5.2-4-8.61-.91A1,1,0,0,0,26,52.62L37.32,67.79C37.5,68,41.81,74,49.4,74,59.21,74,62,62.73,62,62.58l2-10.15a1,1,0,0,0,0-.19A3.93,3.93,0,0,0,60,48.33ZM21,39V8H60V39H45.64V36.51A5.36,5.36,0,0,0,45.41,35H51V33H44.19A3.9,3.9,0,0,0,39,33H29v2h8.74a5.36,5.36,0,0,0-.22,1.51V39ZM60,62.16C60,62.26,57.64,72,49.4,72,42.86,72,39,66.69,38.94,66.61L28.24,52.21c1.53-1,3-.53,5.25,1.5l4.4,3.59a1,1,0,0,0,1.63-.77v-20c0-1.74,1-2.51,2.06-2.51s2.06.78,2.06,2.51V50.75a1,1,0,0,0,2,0V47.24a2.07,2.07,0,0,1,4.13,0v4.68a1,1,0,0,0,2,0V49.51a1.68,1.68,0,0,1,1.68-1.91c1.26,0,2.44.93,2.44,1.91v2.73h0v2a1,1,0,0,0,2,0v-2A2.05,2.05,0,0,1,62,52.15Z" fill="#D5121E"/>
</svg>