<svg width="83" height="122" viewBox="0 0 83 122" fill="none" xmlns="http://www.w3.org/2000/svg">
<path d="M53.4728 83.2471H53.2927C52.9327 83.2471 52.5726 83.4265 52.3925 83.7853L48.7917 89.5265L45.1908 83.7853C45.0108 83.4265 44.6507 83.2471 44.2906 83.2471H44.1105C43.5704 83.2471 43.0303 83.7853 43.0303 84.3235V94.3706C43.0303 94.9088 43.3904 95.4471 44.1105 95.4471C44.6507 95.4471 45.1908 95.0882 45.1908 94.3706V87.1941L48.0715 91.5C48.2515 91.8588 48.6116 92.0382 48.9717 92.0382C49.3318 92.0382 49.6919 91.8588 49.8719 91.5L52.7526 87.1941V94.3706C52.7526 94.9088 53.2927 95.4471 53.8329 95.4471C54.373 95.4471 54.9131 94.9088 54.9131 94.3706V84.3235C54.553 83.6059 54.193 83.2471 53.4728 83.2471Z" fill="black"/>
<path d="M72.1974 83.2471C71.6573 83.2471 71.2972 83.6059 71.1172 83.9647L68.4165 92.2177L65.7159 84.1441C65.5358 83.6059 65.1757 83.2471 64.6356 83.2471H64.4556C63.9154 83.2471 63.5553 83.6059 63.3753 84.1441L60.6746 92.2177L57.974 83.9647C57.794 83.6059 57.4339 83.2471 56.8937 83.2471C56.3536 83.2471 55.8135 83.6059 55.8135 84.3235C55.8135 84.503 55.8135 84.6824 55.8135 84.6824L59.4143 94.55C59.5944 95.0883 59.9545 95.4471 60.4946 95.4471H60.6746C61.2148 95.4471 61.5749 95.0883 61.7549 94.55L64.4556 86.8353L67.1562 94.55C67.3363 95.0883 67.6963 95.4471 68.2365 95.4471H68.4165C68.9566 95.4471 69.3167 95.0883 69.4968 94.55L73.0976 84.6824C73.0976 84.503 73.2777 84.3235 73.2777 84.3235C73.2777 83.6059 72.7376 83.2471 72.1974 83.2471Z" fill="black"/>
<path d="M57.974 64.2294C56.1735 64.2294 54.3731 64.4088 52.7527 64.7676L50.5922 61.8971L52.7527 51.85L46.6312 38.3941L51.1323 28.3471L44.2907 21.1706L43.5705 17.4029L47.3514 8.43235L40.8699 0H32.5879L28.0868 8.43235V13.8147L25.9262 15.7882L22.5054 13.4559L18.0043 13.0971L13.5033 5.92059L4.86117 11.8412L11.5228 21.8882L16.2039 24.2206L19.2646 27.2706L17.8243 33.9088L19.4447 39.1118L18.1844 49.8765L25.5662 55.4382L24.6659 60.6412L15.1236 71.2265L2.16052 83.7853L3.96095 98.6765L0 109.262L9.18221 116.618L10.2625 122L35.8286 114.644L39.4295 116.079L45.0108 110.697C48.7918 113.029 53.1128 114.285 57.974 114.285C71.8373 114.285 83 103.162 83 89.3471C83 75.5324 71.8373 64.2294 57.974 64.2294ZM38.7093 111.953L36.1887 110.876L13.1432 117.515L12.603 114.644L4.32104 108.006L7.74187 99.0353L5.76139 85.2206L17.4642 73.7382L27.9067 62.2559L29.167 54.0029L21.7853 48.4412L23.0456 38.9324L21.4252 33.9088L23.0456 26.3735L18.1844 21.5294L13.8633 19.3765L9.90239 12.7382L12.423 10.9441L15.8438 16.5059L21.4252 17.0441L26.4664 20.4529L31.8677 15.4294V9.32941L34.7484 3.58824H39.0694L43.2104 9.15L39.7896 17.2235L40.8699 23.1441L46.6312 29.2441L42.4902 38.5735L48.7918 52.5676L46.6312 62.7941L48.9718 65.8441C39.6095 69.4324 32.7679 78.5824 32.7679 89.1677C32.7679 96.8824 36.3688 103.879 41.9501 108.365L38.7093 111.953ZM57.974 110.697C53.6529 110.697 49.692 109.441 46.2712 107.288L45.9111 106.929C40.1497 102.982 36.5488 96.3441 36.5488 89.3471C36.5488 79.6588 43.0304 71.2265 52.5727 68.7147L53.6529 68.3559C55.0933 67.9971 56.5336 67.9971 57.974 67.9971C69.8568 67.9971 79.3991 77.5059 79.3991 89.3471C79.3991 101.188 69.8568 110.697 57.974 110.697Z" fill="black"/>
</svg>
