<?xml version="1.0" encoding="utf-8"?>
<!-- Generator: Adobe Illustrator 25.2.3, SVG Export Plug-In . SVG Version: 6.00 Build 0)  -->
<svg version="1.1" id="Layer_1" xmlns="http://www.w3.org/2000/svg" xmlns:xlink="http://www.w3.org/1999/xlink" x="0px" y="0px"
	 viewBox="0 0 512 512" style="enable-background:new 0 0 512 512;" xml:space="preserve">
<style type="text/css">
	.st0{fill:#7687A3;}
</style>
<g>
	<g>
		<path class="st0" d="M333.2,237.4c32.8-23.9,54.1-62.6,54.1-106.1C387.3,58.9,328.4,0,256,0S124.7,58.9,124.7,131.3
			c0,43.6,21.3,82.2,54.1,106.1C97.4,268.6,39.4,347.5,39.4,439.8c0,39.8,32.4,72.2,72.2,72.2h288.8c39.8,0,72.2-32.4,72.2-72.2
			C472.6,347.5,414.6,268.6,333.2,237.4z M164.1,131.3c0-50.7,41.2-91.9,91.9-91.9s91.9,41.2,91.9,91.9s-41.2,91.9-91.9,91.9
			S164.1,182,164.1,131.3z M400.4,472.6H111.6c-18.1,0-32.8-14.7-32.8-32.8c0-97.7,79.5-177.2,177.2-177.2s177.2,79.5,177.2,177.2
			C433.2,457.9,418.5,472.6,400.4,472.6z"/>
	</g>
</g>
</svg>
