<svg width="171" height="31" viewBox="0 0 171 31" fill="none" xmlns="http://www.w3.org/2000/svg">
<path d="M164.8 15.5C164.8 20.4 160.8 24.5 155.8 24.5H150.5V6.49999H155.8C160.8 6.49999 164.8 10.5 164.8 15.5ZM170.1 15.5C170.1 7.59999 163.7 1.29999 155.9 1.29999H145.3V29.7H155.9C163.7 29.7 170.1 23.3 170.1 15.5Z" fill="white"/>
<path d="M120 10.8C120 13.2 118.1 15.1 115.7 15.1H107.5V6.59999H115.7C118.1 6.49999 120 8.39999 120 10.8ZM125.4 10.8C125.4 5.49999 121.1 1.29999 115.9 1.29999H102.5V29.7H107.8V20.3H114.4L119.3 29.7H125L119.7 19.6C122.9 18.1 125.4 14.7 125.4 10.8Z" fill="white"/>
<path d="M81.1 15L83.9 20.3H90.6C89 23.3 86 25.3 82.5 25.3C77.4 25.3 73.2 20.9 73.2 15.5C73.2 10.1 77.4 5.7 82.5 5.7C85.2 5.7 87.7 7 89.4 9L93.7 5.9C91 2.6 87 0.5 82.5 0.5C74.5 0.5 68 7.2 68 15.6C68 23.9 74.5 30.7 82.5 30.7C90.5 30.7 97 24 97 15.6C97 15.5 97 15.3 97 15.2H81.1V15Z" fill="white"/>
<path d="M30.8 1.19995H25.5V29.5999H30.8V1.19995Z" fill="white"/>
<path d="M57.2999 1.19995V22.0999L46.2999 1.19995H38.8999V29.7H44.1999V8.79995L55.0999 29.7H62.4999V1.19995H57.2999Z" fill="white"/>
<path d="M0 1.19995V29.7H5.3V20.2999H15.6L18.3 15H5.3V6.49995H19.6V1.19995H0Z" fill="white"/>
<path d="M137.1 1.19995H131.8V29.5999H137.1V1.19995Z" fill="white"/>
</svg>
