<?xml version="1.0" encoding="utf-8"?>
<!-- Generator: Adobe Illustrator 24.1.3, SVG Export Plug-In . SVG Version: 6.00 Build 0)  -->
<svg version="1.1" id="Layer_1" xmlns="http://www.w3.org/2000/svg" xmlns:xlink="http://www.w3.org/1999/xlink" x="0px" y="0px"
	 viewBox="0 0 20 19" style="enable-background:new 0 0 20 19;" xml:space="preserve">
<style type="text/css">
	.st0{fill:#FFCB27;}
</style>
<g>
	<path class="st0" d="M12.6,16.7H2.3V2.3h10.3c0.2,0,0.4-0.2,0.4-0.4V0.4C13,0.2,12.8,0,12.6,0H0.4C0.2,0,0,0.2,0,0.4v18.2
		C0,18.8,0.2,19,0.4,19h12.2c0.2,0,0.4-0.2,0.4-0.4v-1.5C13,16.9,12.8,16.7,12.6,16.7L12.6,16.7z M12.6,16.7"/>
	<path class="st0" d="M19.9,9.2l-5.6-5.5c-0.2-0.2-0.4-0.2-0.6,0L12.4,5c-0.2,0.2-0.2,0.4,0,0.6l2.5,2.5H4.1c-0.2,0-0.4,0.2-0.4,0.4
		v2c0,0.2,0.2,0.4,0.4,0.4h10.9l-2.5,2.5c-0.2,0.2-0.2,0.4,0,0.6l1.3,1.3c0.1,0.1,0.2,0.1,0.3,0.1c0.1,0,0.2,0,0.3-0.1l5.6-5.5
		C20,9.7,20,9.6,20,9.5C20,9.4,20,9.3,19.9,9.2L19.9,9.2z M19.9,9.2"/>
</g>
</svg>
