<?xml version="1.0" encoding="utf-8"?>
<!-- Generator: Adobe Illustrator 25.2.3, SVG Export Plug-In . SVG Version: 6.00 Build 0)  -->
<svg version="1.1" id="Capa_1" xmlns="http://www.w3.org/2000/svg" xmlns:xlink="http://www.w3.org/1999/xlink" x="0px" y="0px"
	 viewBox="0 0 859 421" style="enable-background:new 0 0 859 421;" xml:space="preserve">
<style type="text/css">
	.st0{fill:#282832;}
</style>
<path class="st0" d="M169.7,181.8v234.6h-34.4v-24.1c-12.1,17.8-30.9,28.5-55.8,28.5c-43.3,0-79.3-38.5-79.3-88.1
	c0-49.9,36-88.1,79.3-88.1c24.8,0,43.7,10.7,55.8,28.2v-90.8H169.7z M135.2,332.6c0-31.2-21.7-53.6-50.3-53.6s-50.4,22.4-50.4,53.6
	s21.7,53.6,50.4,53.6S135.2,363.7,135.2,332.6z"/>
<path class="st0" d="M221,200.5c0-12.7,9.9-23.1,22-23.1s22,10.4,22,23.1c0,12.4-9.9,23.1-22,23.1S221,212.9,221,200.5z
	 M225.8,248.8h34.4v167.6h-34.5L225.8,248.8z"/>
<path class="st0" d="M485.4,332.6c0,49.6-36,88.1-79.3,88.1c-24.9,0-43.6-10.7-55.8-28.5v24.1h-34.4V181.8h34.4v90.8
	c12.1-17.4,30.9-28.1,55.8-28.1C449.4,244.4,485.4,282.6,485.4,332.6z M451,332.6c0-31.2-21.7-53.6-50.3-53.6s-50.3,22.5-50.3,53.6
	s21.7,53.6,50.3,53.6S451,363.7,451,332.6L451,332.6z"/>
<path class="st0" d="M646,369.1c0,33.5-27.7,51.6-62.1,51.6c-31.9,0-54.8-15.1-65-39.2l29.6-18.1c5.1,15.1,17.8,24.1,35.4,24.1
	c15.3,0,27.1-5.4,27.1-18.8c0-29.8-85.7-13.1-85.7-73.1c0-31.5,25.8-51.3,58.3-51.3c26.1,0,47.8,12.7,58.9,34.8l-29,17.1
	c-5.7-13.1-16.9-19.1-30-19.1c-12.4,0-23.3,5.7-23.3,17.8C560.3,325.5,646,307.1,646,369.1z"/>
<polygon class="st0" points="692.9,71.8 685.6,96.7 685.6,134.9 648.8,64.6 "/>
<polygon class="st0" points="670.8,123.5 645.7,171.8 645.7,75.2 "/>
<polygon class="st0" points="713.2,179 697.6,174.6 648.8,182.5 675.1,131.6 686.3,152 "/>
<polygon class="st0" points="704,218.9 653,189.5 694.9,182.7 "/>
<polygon class="st0" points="763.9,190.6 712.3,220.9 703,183.9 725.9,190.6 "/>
<polygon class="st0" points="787.8,226.7 752.6,247 717.4,226.7 752.6,205.6 "/>
<polygon class="st0" points="808,163 792.9,220.9 760.2,201.3 781.1,189.8 "/>
<polygon class="st0" points="852.2,189.5 801.2,218.9 810.3,182.8 "/>
<polygon class="st0" points="856.4,182.5 812.3,175.4 819.7,150 819.6,112.3 "/>
<polygon class="st0" points="859.5,75.3 859.5,171.9 834.5,123.7 "/>
<polygon class="st0" points="856.5,64.7 830.1,115.6 818.8,95 792,68.2 807.5,72.6 "/>
<polygon class="st0" points="852.2,57.7 810.3,64.4 801.2,28.2 "/>
<polygon class="st0" points="802.2,63.2 779.3,56.6 741.3,56.5 792.9,26.3 "/>
<polygon class="st0" points="787.8,20.5 752.6,41.6 717.5,20.5 752.6,0.2 "/>
<polygon class="st0" points="745,45.9 724.1,57.3 697.2,84.2 712.4,26.2 "/>
<polygon class="st0" points="704,28.2 694.9,64.4 653.1,57.6 "/>
</svg>
