<?xml version="1.0" encoding="utf-8"?>
<!-- Generator: Adobe Illustrator 24.2.1, SVG Export Plug-In . SVG Version: 6.00 Build 0)  -->
<svg version="1.1" id="Layer_1" xmlns="http://www.w3.org/2000/svg" xmlns:xlink="http://www.w3.org/1999/xlink" x="0px" y="0px"
	 viewBox="0 0 466 471.3" style="enable-background:new 0 0 466 471.3;" xml:space="preserve">
<style type="text/css">
	.st0{fill:#B8B8B8;}
</style>
<g>
	<path class="st0" d="M341.3,195c-1.3-25.4-22.4-45.7-48-45.7h-16v-42.7C277.3,47.9,229.5,0,170.7,0S64,47.9,64,106.7v42.7H48
		c-26.5,0-48,21.5-48,48v181.3c0,26.5,21.5,48,48,48h151.9c-5.1-16.9-7.9-34.8-7.9-53.3C192,284.2,256.4,209.9,341.3,195z
		 M106.7,149.3v-42.7c0-35.3,28.7-64,64-64s64,28.7,64,64v42.7H106.7z"/>
	<g>
		<path class="st0" d="M449.5,383.4c-10.4-5.6-23.3-1.7-28.9,8.6c-12.2,22.6-35.7,36.6-61.2,36.6c-13,0-25.4-3.9-36.2-10.5
			l10.2-10.2c4.6-4.6,6-11.5,3.5-17.4c-2.5-6-8.3-9.9-14.8-9.9h-53.3c-8.8,0-16,7.2-16,16V450c0,6.5,3.9,12.3,9.9,14.8
			c2,0.8,4.1,1.2,6.1,1.2c4.2,0,8.3-1.6,11.3-4.7l12.2-12.2c19.2,14.3,42.6,22.3,67.1,22.3c41.2,0,79.1-22.6,98.8-59
			C463.7,402,459.8,389.1,449.5,383.4L449.5,383.4z"/>
		<path class="st0" d="M456.1,253.9c-6-2.5-12.9-1.1-17.4,3.5l-12.2,12.2c-19.2-14.3-42.6-22.3-67.1-22.3
			c-41.3,0-79.1,22.7-98.8,59.2c-5.6,10.4-1.7,23.3,8.7,28.9c3.2,1.7,6.7,2.5,10.1,2.5c7.6,0,15-4.1,18.8-11.2
			c12.2-22.7,35.6-36.8,61.2-36.8c13,0,25.4,3.9,36.2,10.5l-10.2,10.2c-4.6,4.6-6,11.5-3.5,17.4s8.3,9.9,14.8,9.9H450
			c8.8,0,16-7.2,16-16v-53.3C466,262.2,462.1,256.3,456.1,253.9z"/>
	</g>
</g>
</svg>
