<svg width="63" height="51" viewBox="0 0 63 51" fill="none" xmlns="http://www.w3.org/2000/svg">
<g clip-path="url(#clip0_120_4091)">
<path d="M62.7627 49.5733C62.6441 48.8601 62.4068 48.1468 62.2881 47.5524C62.2881 47.4335 62.1695 47.1957 62.1695 47.0768C62.1695 46.958 62.0508 46.8391 62.0508 46.7202C61.9322 46.3635 61.8136 45.888 61.6949 45.5314C61.5763 45.2936 61.5763 45.0559 61.4576 44.8181C61.339 44.3426 61.1017 43.867 60.8644 43.5104C60.7458 43.2726 60.7458 43.0349 60.6271 42.916C60.5085 42.6782 60.3898 42.3216 60.2712 42.0838V41.9649C60.1525 41.7272 60.0339 41.3705 59.9153 41.1328C59.7966 40.895 59.678 40.6573 59.4407 40.3006C59.2034 39.944 59.0847 39.5873 58.8475 39.2307C58.7288 38.9929 58.4915 38.6363 58.2542 38.3985C58.0169 38.0419 57.7797 37.8041 57.661 37.4475C57.4237 37.2097 57.3051 36.8531 57.0678 36.6153C56.8305 36.2586 56.4746 35.902 56.2373 35.5454C55.8814 35.1887 55.6441 34.8321 55.2881 34.4754C55.0508 34.2377 54.6949 33.881 54.4576 33.6433C54.2203 33.4055 53.9831 33.1677 53.7458 32.93C53.5085 32.6922 53.2712 32.4545 53.0339 32.2167L52.7966 31.9789C52.5593 31.86 52.4407 31.6223 52.2034 31.5034C51.9661 31.2656 51.6102 31.0279 51.3729 30.7901C51.1356 30.5524 50.7797 30.3146 50.5424 30.1957C50.0678 29.8391 49.4746 29.4824 49 29.1258C48.7627 29.0069 48.4068 28.7691 48.1695 28.6503C47.8136 28.4125 47.4576 28.2936 47.1017 28.0558C46.8644 27.937 46.5085 27.6992 46.1525 27.5803C45.9153 27.4614 45.7966 27.3426 45.678 27.3426L45.2034 27.1048C43.8983 26.5104 42.5932 26.0349 41.2881 25.5593C42.3559 23.7761 42.9492 21.7551 42.9492 19.7342C42.9492 13.6712 37.9661 8.67822 31.9153 8.67822C25.8644 8.67822 20.8814 13.6712 20.8814 19.7342C20.8814 21.7551 21.4746 23.7761 22.5424 25.5593C11.1525 29.0069 2.37288 38.1607 0.237288 49.5733L0 50.9999H11.5085H26.8136H42.1186H63.1186L62.7627 49.5733ZM24.5593 24.9649C23.4915 23.4195 22.8983 21.6363 22.8983 19.8531C22.8983 15.0978 26.8136 11.1747 31.5593 11.1747C36.3051 11.1747 40.2203 15.0978 40.2203 19.8531C40.2203 21.7551 39.6271 23.5384 38.5593 24.9649C38.4407 24.9649 38.322 24.9649 38.2034 24.8461C37.9661 24.8461 37.7288 24.7272 37.4915 24.7272H37.2542C37.1356 24.7272 37.0169 24.7272 36.8983 24.7272C36.1864 24.6083 35.3559 24.4894 34.6441 24.3705C34.4068 24.3705 34.1695 24.3705 33.9322 24.3705C33.1017 24.2517 32.2712 24.2517 31.4407 24.2517C30.6102 24.2517 29.7797 24.2517 28.9492 24.3705C28.7119 24.3705 28.4746 24.3705 28.3559 24.3705C27.6441 24.4894 26.8136 24.4894 26.1017 24.7272C25.8644 24.7272 25.7458 24.8461 25.5085 24.8461C25.1525 24.8461 24.9153 24.8461 24.5593 24.9649ZM2.84746 48.6223C5.33898 38.2796 13.7627 30.1957 24.0847 27.4614C24.7966 27.2237 25.5085 27.1048 26.2203 26.9859C26.4576 26.9859 26.8136 26.867 27.0508 26.867C27.5254 26.7482 28 26.7482 28.4746 26.6293C28.7119 26.6293 29.0678 26.6293 29.3051 26.5104C29.7797 26.5104 30.2542 26.5104 30.8475 26.3915C21.3559 30.3146 14.1186 38.5174 11.8644 48.5034H2.84746V48.6223ZM14.3559 48.6223C16.9661 37.8041 25.9831 29.3635 37.1356 27.1048C37.7288 27.2237 38.2034 27.3426 38.7966 27.4614C39.8644 27.6992 40.9322 28.1747 42 28.5314C34.4068 32.93 28.9492 40.3006 27.1695 48.6223H14.3559ZM29.661 48.6223C31.678 40.5384 37.2542 33.6433 44.8475 29.7202C46.9831 30.7901 49 32.0978 50.7797 33.6433C46.6271 37.8041 43.7797 43.0349 42.5932 48.6223H29.661ZM44.9661 48.6223C46.1525 43.6293 48.7627 38.9929 52.5593 35.3076C52.7966 35.5454 52.9153 35.6642 53.1525 35.902C53.2712 36.0209 53.3898 36.1398 53.3898 36.2586C53.7458 36.7342 54.1017 37.0908 54.5763 37.5663C54.6949 37.6852 54.8136 37.923 55.0508 38.0419C55.4068 38.3985 55.6441 38.874 55.8814 39.2307C56.2373 39.7062 56.5932 40.1817 56.8305 40.7761C56.9492 41.0139 57.1864 41.3705 57.3051 41.6083C57.5424 41.9649 57.661 42.3216 57.8983 42.6782C58.0169 42.916 58.1356 43.2726 58.2542 43.5104C58.3729 43.867 58.6102 44.2237 58.7288 44.5803C58.8475 44.937 58.9661 45.2936 59.0847 45.6503C59.2034 46.0069 59.322 46.2447 59.4407 46.6013C59.678 47.1957 59.7966 47.909 60.0339 48.5034V48.6223H44.9661Z" fill="#DA202C"/>
<path d="M32.1527 1.54541H29.7798V5.23072H32.1527V1.54541Z" fill="#DA202C"/>
<path d="M23.6981 0.045656L21.5215 0.992188L24.0248 6.77182L26.2014 5.82529L23.6981 0.045656Z" fill="#DA202C"/>
<path d="M18.2132 5.92869L16.5933 7.66602L19.5408 10.4255L21.1608 8.68813L18.2132 5.92869Z" fill="#DA202C"/>
<path d="M11.4878 11.1658L10.6919 13.4058L16.6159 15.519L17.4118 13.2791L11.4878 11.1658Z" fill="#DA202C"/>
<path d="M15.931 18.9898L11.5513 19.2883L11.7123 21.6605L16.092 21.362L15.931 18.9898Z" fill="#DA202C"/>
<path d="M38.1537 -0.0196235L35.6504 5.76001L37.827 6.70654L40.3303 0.926908L38.1537 -0.0196235Z" fill="#DA202C"/>
<path d="M43.7514 5.95231L40.8042 8.71216L42.4244 10.4492L45.3716 7.6894L43.7514 5.95231Z" fill="#DA202C"/>
<path d="M50.4382 11.1516L44.5142 13.2649L45.31 15.5049L51.2341 13.3916L50.4382 11.1516Z" fill="#DA202C"/>
<path d="M46.0986 18.9819L45.9375 21.354L50.3172 21.6526L50.4783 19.2804L46.0986 18.9819Z" fill="#DA202C"/>
</g>
<defs>
<clipPath id="clip0_120_4091">
<rect width="63" height="51" fill="white"/>
</clipPath>
</defs>
</svg>
