<?xml version="1.0" encoding="utf-8"?>
<!-- Generator: Adobe Illustrator 24.1.1, SVG Export Plug-In . SVG Version: 6.00 Build 0)  -->
<svg version="1.1" id="Capa_1" xmlns="http://www.w3.org/2000/svg" xmlns:xlink="http://www.w3.org/1999/xlink" x="0px" y="0px"
	 viewBox="0 0 38 34" style="enable-background:new 0 0 38 34;" xml:space="preserve">
<style type="text/css">
	.st0{fill:#E2A41F;}
</style>
<g>
	<path class="st0" d="M37.54,28.71L22.11,1.76c-1.32-2.35-4.91-2.35-6.22,0L0.46,28.71C-0.86,31.06,0.82,34,3.57,34h30.75
		C37.19,33.88,38.86,31.06,37.54,28.71z M3.57,30.47L19,3.53l15.43,26.94H3.57z"/>
	<path class="st0" d="M16.49,15.88l0.96,6.24c0.12,0.71,0.72,1.29,1.56,1.29c0.72,0,1.44-0.59,1.56-1.29l0.96-6.24
		c0.24-1.53-0.96-2.82-2.51-2.82C17.45,13.06,16.37,14.35,16.49,15.88z"/>
	<ellipse class="st0" cx="19" cy="26.12" rx="1.44" ry="1.41"/>
</g>
</svg>
